<svg xmlns="http://www.w3.org/2000/svg" viewBox="0 0 297 144"><g fill="none" fill-rule="evenodd"><path fill="#005088" d="M0 143.767h281.28V23.943H0z"/><path fill="#FFDA1A" d="M257.338 119.824h39.58V0h-39.58z"/><g fill="#FFFFFE"><path d="M40.134 57.686h-9.378l-.384-.377v-8.172l.37-.402h9.392c3.428 0 4.956 1.38 4.956 4.476 0 3.095-1.528 4.475-4.956 4.475zm4.116 5.038c3.422-.828 7.27-3.835 7.27-9.513 0-6.227-4.257-9.944-11.386-9.944H24.336l-.393.393v32.559l.393.392h5.643l.393-.392V63.615l.41-.461L36 63.17l.844.46 9.635 12.532.9.449h2.786l.393-.392v-4.694l-6.308-8.238v-.563zM58.587 86.064c6.866 0 8.656-4.43 10.435-8.878l7.68-19.199v-4.715l-.393-.393h-4.202l-.414.413-5.865 16.62h-.562l-5.848-16.62-.412-.413h-4.202l-.393.393v4.715l7.69 18.774-.008.528c-.456 1.736-1.039 3.393-3.506 3.307h-2.83l-.393.393v4.682l.393.393h2.83zM85.898 62.124c0-1.18.759-4.257 4.475-4.257 3.716 0 4.476 3.154 4.476 4.241l-.364.384h-8.204l-.383-.368zM101.366 67l.392-.393v-1.86c0-9.114-6.133-12.347-11.385-12.347s-11.385 3.233-11.385 12.346c0 5.695 3.107 12.347 11.866 12.347 8.012 0 9.622-5.264 9.933-7.009l-.382-.382h-5.644l-.42.42c-.473.914-1.838 1.503-3.487 1.503-4.115 0-4.956-3.088-4.956-4.228l.368-.397h15.1zM112.172 55.052l-.593-1.76-.41-.413h-5.165l-.392.393v22.946l.392.393h5.644l.393-.393V64.745c0-4.544 1.575-6.398 5.436-6.398h3.303l.392-.393v-4.682l-.392-.393h-2.822c-4.41 0-5.339 2.155-5.349 2.173h-.437zM135.906 62.49c-.493-.083-.987-.15-1.465-.217-2.376-.327-4.427-.61-4.427-2.334 0-1.726 1.344-2.072 3.514-2.072 2.384 0 3.473.472 3.514 1.528l.393.394h5.644l.392-.393c-.036-4.317-3.839-6.997-9.943-6.997-6.225 0-9.943 2.64-9.943 7.06 0 4.008 3.03 6.545 9.007 7.542.377.063.74.117 1.082.17 2.319.35 3.85.582 3.85 2.38 0 1.858-2.28 2.073-3.995 2.073-2.055 0-3.959-.304-3.994-2.49l-.394-.394h-5.643l-.394.393c.032 4.911 4.022 7.96 10.425 7.96 5.038 0 10.422-1.982 10.422-7.542 0-5.72-5.433-6.626-8.044-7.06M158.542 71.624c-3.455 0-5.436-2.507-5.436-6.879 0-4.371 1.981-6.878 5.436-6.878s5.436 2.507 5.436 6.878c0 4.372-1.98 6.879-5.436 6.879m0-19.225c-7.209 0-11.866 4.846-11.866 12.346 0 7.501 4.657 12.347 11.866 12.347 7.208 0 11.866-4.846 11.866-12.347 0-7.5-4.658-12.346-11.866-12.346M190.39 76.611h5.645l.393-.393V61.861c0-5.836-3.442-9.462-8.983-9.462-2.476 0-4.804.872-6.351 2.59h-.437l-.553-1.698-.411-.412h-5.163l-.392.393v22.946l.392.393h5.643l.394-.393V64.265c0-4.246 1.829-6.398 5.436-6.398 2.613 0 3.995 1.547 3.995 4.475v13.876l.393.393zM50.558 86.833l-.393-.393h-5.644l-.392.393v20.124c0 5.202-2.314 7.84-6.879 7.84-4.564 0-6.878-2.638-6.878-7.84V86.833l-.393-.393h-5.643l-.393.393v20.124c0 8.582 4.726 13.308 13.307 13.308 8.582 0 13.308-4.726 13.308-13.308V86.833zM82.83 86.44l-.392.393v4.682l.392.393h5.644l.393-.393v-4.682l-.393-.393zM88.473 119.785l.393-.393V96.446l-.393-.393H82.83l-.392.393v22.946l.392.393zM110.416 96.053l-.414.414-5.903 15.226h-.479l-5.89-15.226-.415-.414h-4.202l-.392.393v4.712l8.146 18.209.417.418h5.163l.417-.418 8.146-18.21v-4.711l-.393-.393zM174.091 105.663c-.494-.082-.987-.15-1.466-.217-2.376-.328-4.427-.61-4.427-2.334 0-1.726 1.344-2.072 3.514-2.072 2.383 0 3.472.472 3.513 1.528l.394.394h5.643l.393-.393c-.036-4.317-3.839-6.997-9.943-6.997-6.226 0-9.942 2.64-9.942 7.06 0 4.008 3.03 6.546 9.006 7.542.38.063.74.118 1.083.17 2.317.35 3.847.582 3.847 2.381 0 1.857-2.279 2.072-3.994 2.072-2.055 0-3.96-.303-3.994-2.49l-.393-.394h-5.643l-.393.393c.034 4.911 4.02 7.96 10.423 7.96 5.04 0 10.425-1.982 10.425-7.54 0-5.722-5.435-6.628-8.046-7.063M192.027 119.785l.393-.393V96.446l-.393-.393h-5.644l-.392.393v22.946l.392.393zM186.383 86.44l-.392.393v4.682l.392.393h5.644l.393-.393v-4.682l-.393-.393zM208.141 119.785h4.264l.392-.393v-4.682l-.392-.393h-4.264c-1.04 0-1.59-.55-1.59-1.592v-10.813l.386-.391h5.468l.392-.393v-4.682l-.392-.393h-5.477l-.378-.387v-4.507l-.394-.393h-5.643l-.393.393v4.507l-.397.387h-3.536l-.393.393v4.682l.393.393h3.557l.376.385v10.819c0 6.372 5.61 7.06 8.021 7.06M71.587 119.785h5.643l.394-.393v-14.357c0-5.836-3.442-9.462-8.983-9.462-2.477 0-4.805.872-6.352 2.59h-.437l-.552-1.698-.411-.412h-5.163l-.393.393v22.946l.393.393h5.643l.394-.393v-11.953c0-4.246 1.829-6.398 5.436-6.398 2.612 0 3.994 1.547 3.994 4.475v13.875l.394.394zM124.083 105.297c0-1.18.76-4.256 4.475-4.256 3.716 0 4.476 3.154 4.476 4.24l-.364.385h-8.204l-.383-.368zm15.468 4.875l.392-.392v-1.861c0-9.113-6.133-12.346-11.385-12.346s-11.385 3.233-11.385 12.346c0 5.695 3.107 12.347 11.866 12.347 8.012 0 9.622-5.264 9.933-7.01l-.382-.381h-5.644l-.42.42c-.473.914-1.838 1.503-3.487 1.503-4.115 0-4.956-3.088-4.956-4.228l.368-.398h15.1zM150.357 98.225l-.593-1.76-.411-.413h-5.164l-.392.393v22.946l.392.393h5.644l.393-.393v-11.473c0-4.544 1.575-6.398 5.436-6.398h3.303l.393-.393v-4.682l-.393-.393h-2.822c-4.411 0-5.339 2.154-5.349 2.173h-.437zM219.886 129.238c6.866 0 8.656-4.431 10.435-8.878l7.68-19.198v-4.716l-.393-.393h-4.202l-.414.413-5.865 16.619h-.562l-5.848-16.62-.412-.412h-4.202l-.393.393v4.715l7.69 18.774-.008.528c-.548 1.76-1.267 3.307-3.506 3.307h-2.342l-.392.393v4.682l.392.393h2.342z"/></g></g></svg>